<svg xmlns="http://www.w3.org/2000/svg" xmlns:xlink="http://www.w3.org/1999/xlink" contentStyleType="text/css" data-diagram-type="CLASS" height="1084px" preserveAspectRatio="none" style="width:2260px;height:1084px;background:#FFFFFF;" version="1.1" viewBox="0 0 2260 1084" width="2260px" zoomAndPan="magnify"><defs/><g><!--cluster Configuraci?n ETL--><g class="cluster" data-entity="Configuraci.n ETL" data-source-line="8" data-uid="ent0002" id="cluster_Configuraci.n ETL"><path d="M256.72,480.16 L400.3997,480.16 A3.75,3.75 0 0 1 402.8997,482.66 L409.8997,502.4569 L913.72,502.4569 A2.5,2.5 0 0 1 916.22,504.9569 L916.22,1018.3 A2.5,2.5 0 0 1 913.72,1020.8 L256.72,1020.8 A2.5,2.5 0 0 1 254.22,1018.3 L254.22,482.66 A2.5,2.5 0 0 1 256.72,480.16" fill="none" style="stroke:#000000;stroke-width:1.5;"/><line style="stroke:#000000;stroke-width:1.5;" x1="254.22" x2="409.8997" y1="502.4569" y2="502.4569"/><text fill="#000000" font-family="sans-serif" font-size="14" font-weight="bold" lengthAdjust="spacing" textLength="142.6797" x="258.22" y="495.1551">Configuraci&#243;n ETL</text></g><!--cluster Dimensiones--><g class="cluster" data-entity="Dimensiones" data-source-line="45" data-uid="ent0007" id="cluster_Dimensiones"><path d="M1797.72,211.49 L1899.7346,211.49 A3.75,3.75 0 0 1 1902.2346,213.99 L1909.2346,233.7869 L2227.72,233.7869 A2.5,2.5 0 0 1 2230.22,236.2869 L2230.22,723.48 A2.5,2.5 0 0 1 2227.72,725.98 L1797.72,725.98 A2.5,2.5 0 0 1 1795.22,723.48 L1795.22,213.99 A2.5,2.5 0 0 1 1797.72,211.49" fill="none" style="stroke:#000000;stroke-width:1.5;"/><line style="stroke:#000000;stroke-width:1.5;" x1="1795.22" x2="1909.2346" y1="233.7869" y2="233.7869"/><text fill="#000000" font-family="sans-serif" font-size="14" font-weight="bold" lengthAdjust="spacing" textLength="101.0146" x="1799.22" y="226.4851">Dimensiones</text></g><!--cluster Referencias--><g class="cluster" data-entity="Referencias" data-source-line="82" data-uid="ent0011" id="cluster_Referencias"><path d="M2039.72,6 L2133.8255,6 A3.75,3.75 0 0 1 2136.3255,8.5 L2143.3255,28.2969 L2250.72,28.2969 A2.5,2.5 0 0 1 2253.22,30.7969 L2253.22,175.99 A2.5,2.5 0 0 1 2250.72,178.49 L2039.72,178.49 A2.5,2.5 0 0 1 2037.22,175.99 L2037.22,8.5 A2.5,2.5 0 0 1 2039.72,6" fill="none" style="stroke:#000000;stroke-width:1.5;"/><line style="stroke:#000000;stroke-width:1.5;" x1="2037.22" x2="2143.3255" y1="28.2969" y2="28.2969"/><text fill="#000000" font-family="sans-serif" font-size="14" font-weight="bold" lengthAdjust="spacing" textLength="93.1055" x="2041.22" y="20.9951">Referencias</text></g><!--cluster Hechos--><g class="cluster" data-entity="Hechos" data-source-line="92" data-uid="ent0013" id="cluster_Hechos"><path d="M1025.72,774.98 L1084.1487,774.98 A3.75,3.75 0 0 1 1086.6487,777.48 L1093.6487,797.2769 L1809.72,797.2769 A2.5,2.5 0 0 1 1812.22,799.7769 L1812.22,1075.34 A2.5,2.5 0 0 1 1809.72,1077.84 L1025.72,1077.84 A2.5,2.5 0 0 1 1023.22,1075.34 L1023.22,777.48 A2.5,2.5 0 0 1 1025.72,774.98" fill="none" style="stroke:#000000;stroke-width:1.5;"/><line style="stroke:#000000;stroke-width:1.5;" x1="1023.22" x2="1093.6487" y1="797.2769" y2="797.2769"/><text fill="#000000" font-family="sans-serif" font-size="14" font-weight="bold" lengthAdjust="spacing" textLength="57.4287" x="1027.22" y="789.9751">Hechos</text></g><!--class etl_sources--><g class="entity" data-entity="etl_sources" data-source-line="9" data-uid="ent0003" id="entity_etl_sources"><rect fill="#F1F1F1" height="186.6719" rx="2.5" ry="2.5" style="stroke:#181818;stroke-width:0.5;" width="188.8047" x="269.82" y="515.16"/><ellipse cx="320.4299" cy="531.16" fill="#AAAAFF" rx="11" ry="11" style="stroke:#181818;stroke-width:1;"/><path d="M323.3986,536.8006 Q322.8205,537.0975 322.1799,537.2381 Q321.5392,537.3944 320.8361,537.3944 Q318.3361,537.3944 317.008,535.7538 Q315.6955,534.0975 315.6955,530.9725 Q315.6955,527.8475 317.008,526.1913 Q318.3361,524.535 320.8361,524.535 Q321.5392,524.535 322.1799,524.6913 Q322.8361,524.8475 323.3986,525.1444 L323.3986,527.8631 Q322.7736,527.285 322.1799,527.0194 Q321.5861,526.7381 320.9611,526.7381 Q319.6174,526.7381 318.9299,527.8163 Q318.2424,528.8788 318.2424,530.9725 Q318.2424,533.0663 318.9299,534.1444 Q319.6174,535.2069 320.9611,535.2069 Q321.5861,535.2069 322.1799,534.9413 Q322.7736,534.66 323.3986,534.0819 L323.3986,536.8006 Z " fill="#000000"/><text fill="#000000" font-family="sans-serif" font-size="14" lengthAdjust="spacing" textLength="79.085" x="340.9299" y="536.0067">etl_sources</text><line style="stroke:#181818;stroke-width:0.5;" x1="270.82" x2="457.6247" y1="547.16" y2="547.16"/><text fill="#000000" font-family="sans-serif" font-size="14" lengthAdjust="spacing" textLength="82.8174" x="275.82" y="564.1551">id: text [PK]</text><text fill="#000000" font-family="sans-serif" font-size="14" lengthAdjust="spacing" textLength="76.7471" x="275.82" y="580.452">name: text</text><text fill="#000000" font-family="sans-serif" font-size="14" lengthAdjust="spacing" textLength="107.6934" x="275.82" y="596.7489">active: boolean</text><text fill="#000000" font-family="sans-serif" font-size="14" lengthAdjust="spacing" textLength="68.3184" x="275.82" y="613.0457">type: text</text><text fill="#000000" font-family="sans-serif" font-size="14" lengthAdjust="spacing" textLength="137.6758" x="275.82" y="629.3426">schedule_cron: text</text><text fill="#000000" font-family="sans-serif" font-size="14" lengthAdjust="spacing" textLength="89.5166" x="275.82" y="645.6395">config: jsonb</text><text fill="#000000" font-family="sans-serif" font-size="14" lengthAdjust="spacing" textLength="149.7002" x="275.82" y="661.9364">storage_config: jsonb</text><text fill="#000000" font-family="sans-serif" font-size="14" lengthAdjust="spacing" textLength="172.2246" x="275.82" y="678.2332">created_at: timestamptz</text><text fill="#000000" font-family="sans-serif" font-size="14" lengthAdjust="spacing" textLength="176.8047" x="275.82" y="694.5301">updated_at: timestamptz</text></g><!--class source_update_method--><g class="entity" data-entity="source_update_method" data-source-line="21" data-uid="ent0004" id="entity_source_update_method"><rect fill="#F1F1F1" height="121.4844" rx="2.5" ry="2.5" style="stroke:#181818;stroke-width:0.5;" width="196.1924" x="493.13" y="547.75"/><ellipse cx="508.13" cy="563.75" fill="#AAFFAA" rx="11" ry="11" style="stroke:#181818;stroke-width:1;"/><path d="M512.2394,569.75 L504.5206,569.75 L504.5206,557.3594 L512.2394,557.3594 L512.2394,559.5156 L506.9738,559.5156 L506.9738,562.1875 L511.7394,562.1875 L511.7394,564.3437 L506.9738,564.3437 L506.9738,567.5937 L512.2394,567.5937 L512.2394,569.75 Z " fill="#000000"/><text fill="#000000" font-family="sans-serif" font-size="14" lengthAdjust="spacing" textLength="164.1924" x="522.13" y="568.5967">source_update_method</text><line style="stroke:#181818;stroke-width:0.5;" x1="494.13" x2="688.3224" y1="579.75" y2="579.75"/><text fill="#000000" font-family="sans-serif" font-size="14" lengthAdjust="spacing" textLength="21.3555" x="499.13" y="596.7451">api</text><text fill="#000000" font-family="sans-serif" font-size="14" lengthAdjust="spacing" textLength="59.8623" x="499.13" y="613.042">scraping</text><text fill="#000000" font-family="sans-serif" font-size="14" lengthAdjust="spacing" textLength="31.8896" x="499.13" y="629.3389">html</text><text fill="#000000" font-family="sans-serif" font-size="14" lengthAdjust="spacing" textLength="51.6455" x="499.13" y="645.6357">archivo</text><text fill="#000000" font-family="sans-serif" font-size="14" lengthAdjust="spacing" textLength="119.1572" x="499.13" y="661.9326">complex_scraper</text></g><!--class source_check_status--><g class="entity" data-entity="source_check_status" data-source-line="29" data-uid="ent0005" id="entity_source_check_status"><rect fill="#F1F1F1" height="88.8906" rx="2.5" ry="2.5" style="stroke:#181818;stroke-width:0.5;" width="176.8057" x="723.82" y="564.05"/><ellipse cx="738.82" cy="580.05" fill="#AAFFAA" rx="11" ry="11" style="stroke:#181818;stroke-width:1;"/><path d="M742.9294,586.05 L735.2106,586.05 L735.2106,573.6594 L742.9294,573.6594 L742.9294,575.8156 L737.6638,575.8156 L737.6638,578.4875 L742.4294,578.4875 L742.4294,580.6438 L737.6638,580.6438 L737.6638,583.8938 L742.9294,583.8938 L742.9294,586.05 Z " fill="#000000"/><text fill="#000000" font-family="sans-serif" font-size="14" lengthAdjust="spacing" textLength="144.8057" x="752.82" y="584.8967">source_check_status</text><line style="stroke:#181818;stroke-width:0.5;" x1="724.82" x2="899.6257" y1="596.05" y2="596.05"/><text fill="#000000" font-family="sans-serif" font-size="14" lengthAdjust="spacing" textLength="75.9609" x="729.82" y="613.0451">no_change</text><text fill="#000000" font-family="sans-serif" font-size="14" lengthAdjust="spacing" textLength="60.4092" x="729.82" y="629.342">changed</text><text fill="#000000" font-family="sans-serif" font-size="14" lengthAdjust="spacing" textLength="38.7871" x="729.82" y="645.6389">failed</text></g><!--class source_check_history--><g class="entity" data-entity="source_check_history" data-source-line="35" data-uid="ent0006" id="entity_source_check_history"><rect fill="#F1F1F1" height="137.7813" rx="2.5" ry="2.5" style="stroke:#181818;stroke-width:0.5;" width="208.9912" x="269.73" y="867.02"/><ellipse cx="296.9033" cy="883.02" fill="#AAAAFF" rx="11" ry="11" style="stroke:#181818;stroke-width:1;"/><path d="M299.872,888.6606 Q299.2939,888.9575 298.6533,889.0981 Q298.0127,889.2544 297.3095,889.2544 Q294.8095,889.2544 293.4814,887.6138 Q292.1689,885.9575 292.1689,882.8325 Q292.1689,879.7075 293.4814,878.0513 Q294.8095,876.395 297.3095,876.395 Q298.0127,876.395 298.6533,876.5513 Q299.3095,876.7075 299.872,877.0044 L299.872,879.7231 Q299.247,879.145 298.6533,878.8794 Q298.0595,878.5981 297.4345,878.5981 Q296.0908,878.5981 295.4033,879.6763 Q294.7158,880.7388 294.7158,882.8325 Q294.7158,884.9263 295.4033,886.0044 Q296.0908,887.0669 297.4345,887.0669 Q298.0595,887.0669 298.6533,886.8013 Q299.247,886.52 299.872,885.9419 L299.872,888.6606 Z " fill="#000000"/><text fill="#000000" font-family="sans-serif" font-size="14" lengthAdjust="spacing" textLength="149.9395" x="313.6085" y="887.8667">source_check_history</text><line style="stroke:#181818;stroke-width:0.5;" x1="270.73" x2="477.7212" y1="899.02" y2="899.02"/><text fill="#000000" font-family="sans-serif" font-size="14" lengthAdjust="spacing" textLength="94.8555" x="275.73" y="916.0151">id: bigint [PK]</text><text fill="#000000" font-family="sans-serif" font-size="14" lengthAdjust="spacing" textLength="136.2266" x="275.73" y="932.312">source_id: text [FK]</text><text fill="#000000" font-family="sans-serif" font-size="14" lengthAdjust="spacing" textLength="196.9912" x="275.73" y="948.6089">status: source_check_status</text><text fill="#000000" font-family="sans-serif" font-size="14" lengthAdjust="spacing" textLength="107.8369" x="275.73" y="964.9057">checksum: text</text><text fill="#000000" font-family="sans-serif" font-size="14" lengthAdjust="spacing" textLength="114.5293" x="275.73" y="981.2026">metadata: jsonb</text><text fill="#000000" font-family="sans-serif" font-size="14" lengthAdjust="spacing" textLength="172.2246" x="275.73" y="997.4995">created_at: timestamptz</text></g><!--class dim_tiempo--><g class="entity" data-entity="dim_tiempo" data-source-line="46" data-uid="ent0008" id="entity_dim_tiempo"><rect fill="#F1F1F1" height="186.6719" rx="2.5" ry="2.5" style="stroke:#181818;stroke-width:0.5;" width="184.2246" x="1811.11" y="246.49"/><ellipse cx="1857.7243" cy="262.49" fill="#FFAAAA" rx="11" ry="11" style="stroke:#181818;stroke-width:1;"/><path d="M1858.568,269.24 L1856.1149,269.24 L1856.1149,258.99 L1852.9743,258.99 L1852.9743,256.8494 L1861.7086,256.8494 L1861.7086,258.99 L1858.568,258.99 L1858.568,269.24 Z " fill="#000000"/><text fill="#000000" font-family="sans-serif" font-size="14" lengthAdjust="spacing" textLength="82.4961" x="1878.2243" y="267.3367">dim_tiempo</text><line style="stroke:#181818;stroke-width:0.5;" x1="1812.11" x2="1994.3346" y1="278.49" y2="278.49"/><text fill="#000000" font-family="sans-serif" font-size="14" lengthAdjust="spacing" textLength="92.9619" x="1817.11" y="295.4851">id: serial [PK]</text><text fill="#000000" font-family="sans-serif" font-size="14" lengthAdjust="spacing" textLength="79.4268" x="1817.11" y="311.782">fecha: date</text><text fill="#000000" font-family="sans-serif" font-size="14" lengthAdjust="spacing" textLength="94.6162" x="1817.11" y="328.0789">anio: smallint</text><text fill="#000000" font-family="sans-serif" font-size="14" lengthAdjust="spacing" textLength="94.2539" x="1817.11" y="344.3757">mes: smallint</text><text fill="#000000" font-family="sans-serif" font-size="14" lengthAdjust="spacing" textLength="129.2471" x="1817.11" y="360.6726">trimestre: smallint</text><text fill="#000000" font-family="sans-serif" font-size="14" lengthAdjust="spacing" textLength="130.0195" x="1817.11" y="376.9695">semestre: smallint</text><text fill="#000000" font-family="sans-serif" font-size="14" lengthAdjust="spacing" textLength="127.9209" x="1817.11" y="393.2664">nombre_mes: text</text><text fill="#000000" font-family="sans-serif" font-size="14" lengthAdjust="spacing" textLength="164.876" x="1817.11" y="409.5632">es_proyeccion: boolean</text><text fill="#000000" font-family="sans-serif" font-size="14" lengthAdjust="spacing" textLength="172.2246" x="1817.11" y="425.8601">created_at: timestamptz</text></g><!--class dim_territorios--><g class="entity" data-entity="dim_territorios" data-source-line="58" data-uid="ent0009" id="entity_dim_territorios"><rect fill="#F1F1F1" height="154.0781" rx="2.5" ry="2.5" style="stroke:#181818;stroke-width:0.5;" width="184.2246" x="2030.11" y="262.79"/><ellipse cx="2067.4962" cy="278.79" fill="#FFAAAA" rx="11" ry="11" style="stroke:#181818;stroke-width:1;"/><path d="M2068.3399,285.54 L2065.8868,285.54 L2065.8868,275.29 L2062.7462,275.29 L2062.7462,273.1494 L2071.4806,273.1494 L2071.4806,275.29 L2068.3399,275.29 L2068.3399,285.54 Z " fill="#000000"/><text fill="#000000" font-family="sans-serif" font-size="14" lengthAdjust="spacing" textLength="102.4775" x="2086.4709" y="283.6367">dim_territorios</text><line style="stroke:#181818;stroke-width:0.5;" x1="2031.11" x2="2213.3346" y1="294.79" y2="294.79"/><text fill="#000000" font-family="sans-serif" font-size="14" lengthAdjust="spacing" textLength="92.9619" x="2036.11" y="311.7851">id: serial [PK]</text><text fill="#000000" font-family="sans-serif" font-size="14" lengthAdjust="spacing" textLength="137.0127" x="2036.11" y="328.082">departamento: text</text><text fill="#000000" font-family="sans-serif" font-size="14" lengthAdjust="spacing" textLength="105.2461" x="2036.11" y="344.3789">municipio: text</text><text fill="#000000" font-family="sans-serif" font-size="14" lengthAdjust="spacing" textLength="111.6035" x="2036.11" y="360.6757">latitud: numeric</text><text fill="#000000" font-family="sans-serif" font-size="14" lengthAdjust="spacing" textLength="123.8604" x="2036.11" y="376.9726">longitud: numeric</text><text fill="#000000" font-family="sans-serif" font-size="14" lengthAdjust="spacing" textLength="91.916" x="2036.11" y="393.2695">divipola: text</text><text fill="#000000" font-family="sans-serif" font-size="14" lengthAdjust="spacing" textLength="172.2246" x="2036.11" y="409.5664">created_at: timestamptz</text></g><!--class dim_campos--><g class="entity" data-entity="dim_campos" data-source-line="68" data-uid="ent0010" id="entity_dim_campos"><rect fill="#F1F1F1" height="202.9688" rx="2.5" ry="2.5" style="stroke:#181818;stroke-width:0.5;" width="223.6133" x="1885.42" y="507.01"/><ellipse cx="1948.9395" cy="523.01" fill="#FFAAAA" rx="11" ry="11" style="stroke:#181818;stroke-width:1;"/><path d="M1949.7833,529.76 L1947.3302,529.76 L1947.3302,519.51 L1944.1895,519.51 L1944.1895,517.3694 L1952.9239,517.3694 L1952.9239,519.51 L1949.7833,519.51 L1949.7833,529.76 Z " fill="#000000"/><text fill="#000000" font-family="sans-serif" font-size="14" lengthAdjust="spacing" textLength="88.0742" x="1969.4395" y="527.8567">dim_campos</text><line style="stroke:#181818;stroke-width:0.5;" x1="1886.42" x2="2108.0333" y1="539.01" y2="539.01"/><text fill="#000000" font-family="sans-serif" font-size="14" lengthAdjust="spacing" textLength="92.9619" x="1891.42" y="556.0051">id: serial [PK]</text><text fill="#000000" font-family="sans-serif" font-size="14" lengthAdjust="spacing" textLength="145.7422" x="1891.42" y="572.302">nombre_campo: text</text><text fill="#000000" font-family="sans-serif" font-size="14" lengthAdjust="spacing" textLength="96.0586" x="1891.42" y="588.5989">contrato: text</text><text fill="#000000" font-family="sans-serif" font-size="14" lengthAdjust="spacing" textLength="100.6523" x="1891.42" y="604.8957">operador: text</text><text fill="#000000" font-family="sans-serif" font-size="14" lengthAdjust="spacing" textLength="117.3184" x="1891.42" y="621.1926">asociados: text[]</text><text fill="#000000" font-family="sans-serif" font-size="14" lengthAdjust="spacing" textLength="211.6133" x="1891.42" y="637.4895">participacion_estado: numeric</text><text fill="#000000" font-family="sans-serif" font-size="14" lengthAdjust="spacing" textLength="141.5723" x="1891.42" y="653.7864">territorio_id: int [FK]</text><text fill="#000000" font-family="sans-serif" font-size="14" lengthAdjust="spacing" textLength="107.6455" x="1891.42" y="670.0832">activo: boolean</text><text fill="#000000" font-family="sans-serif" font-size="14" lengthAdjust="spacing" textLength="172.2246" x="1891.42" y="686.3801">created_at: timestamptz</text><text fill="#000000" font-family="sans-serif" font-size="14" lengthAdjust="spacing" textLength="176.8047" x="1891.42" y="702.677">updated_at: timestamptz</text></g><!--class ref_unidades--><g class="entity" data-entity="ref_unidades" data-source-line="83" data-uid="ent0012" id="entity_ref_unidades"><rect fill="#F1F1F1" height="121.4844" rx="2.5" ry="2.5" style="stroke:#181818;stroke-width:0.5;" width="183.124" x="2053.66" y="41"/><ellipse cx="2096.0788" cy="57" fill="#FFAAAA" rx="11" ry="11" style="stroke:#181818;stroke-width:1;"/><path d="M2096.9225,63.75 L2094.4694,63.75 L2094.4694,53.5 L2091.3288,53.5 L2091.3288,51.3594 L2100.0632,51.3594 L2100.0632,53.5 L2096.9225,53.5 L2096.9225,63.75 Z " fill="#000000"/><text fill="#000000" font-family="sans-serif" font-size="14" lengthAdjust="spacing" textLength="90.1934" x="2116.1719" y="61.8467">ref_unidades</text><line style="stroke:#181818;stroke-width:0.5;" x1="2054.66" x2="2235.784" y1="73" y2="73"/><text fill="#000000" font-family="sans-serif" font-size="14" lengthAdjust="spacing" textLength="92.9619" x="2059.66" y="89.9951">id: serial [PK]</text><text fill="#000000" font-family="sans-serif" font-size="14" lengthAdjust="spacing" textLength="83.5352" x="2059.66" y="106.292">codigo: text</text><text fill="#000000" font-family="sans-serif" font-size="14" lengthAdjust="spacing" textLength="91.376" x="2059.66" y="122.5889">nombre: text</text><text fill="#000000" font-family="sans-serif" font-size="14" lengthAdjust="spacing" textLength="171.124" x="2059.66" y="138.8857">factor_a_gbtud: numeric</text><text fill="#000000" font-family="sans-serif" font-size="14" lengthAdjust="spacing" textLength="117.0928" x="2059.66" y="155.1826">descripcion: text</text></g><!--class fact_regalias--><g class="entity" data-entity="fact_regalias" data-source-line="93" data-uid="ent0014" id="entity_fact_regalias"><rect fill="#F1F1F1" height="251.8594" rx="2.5" ry="2.5" style="stroke:#181818;stroke-width:0.5;" width="224.6729" x="1308.89" y="809.98"/><ellipse cx="1372.3856" cy="825.98" fill="#FFAAAA" rx="11" ry="11" style="stroke:#181818;stroke-width:1;"/><path d="M1373.2294,832.73 L1370.7762,832.73 L1370.7762,822.48 L1367.6356,822.48 L1367.6356,820.3394 L1376.37,820.3394 L1376.37,822.48 L1373.2294,822.48 L1373.2294,832.73 Z " fill="#000000"/><text fill="#000000" font-family="sans-serif" font-size="14" lengthAdjust="spacing" textLength="89.1816" x="1392.8856" y="830.8267">fact_regalias</text><line style="stroke:#181818;stroke-width:0.5;" x1="1309.89" x2="1532.5629" y1="841.98" y2="841.98"/><text fill="#000000" font-family="sans-serif" font-size="14" lengthAdjust="spacing" textLength="114.625" x="1314.89" y="858.9751">id: bigserial [PK]</text><text fill="#000000" font-family="sans-serif" font-size="14" lengthAdjust="spacing" textLength="128.8848" x="1314.89" y="875.272">tiempo_id: int [FK]</text><text fill="#000000" font-family="sans-serif" font-size="14" lengthAdjust="spacing" textLength="127.1689" x="1314.89" y="891.5689">campo_id: int [FK]</text><text fill="#000000" font-family="sans-serif" font-size="14" lengthAdjust="spacing" textLength="148.5654" x="1314.89" y="907.8657">tipo_produccion: text</text><text fill="#000000" font-family="sans-serif" font-size="14" lengthAdjust="spacing" textLength="163.9873" x="1314.89" y="924.1626">tipo_hidrocarburo: char</text><text fill="#000000" font-family="sans-serif" font-size="14" lengthAdjust="spacing" textLength="141.9688" x="1314.89" y="940.4595">precio_usd: numeric</text><text fill="#000000" font-family="sans-serif" font-size="14" lengthAdjust="spacing" textLength="196.6631" x="1314.89" y="956.7564">porcentaje_regalia: numeric</text><text fill="#000000" font-family="sans-serif" font-size="14" lengthAdjust="spacing" textLength="212.6729" x="1314.89" y="973.0532">produccion_gravable: numeric</text><text fill="#000000" font-family="sans-serif" font-size="14" lengthAdjust="spacing" textLength="182.4375" x="1314.89" y="989.3501">volumen_regalia: numeric</text><text fill="#000000" font-family="sans-serif" font-size="14" lengthAdjust="spacing" textLength="85.0322" x="1314.89" y="1005.647">unidad: text</text><text fill="#000000" font-family="sans-serif" font-size="14" lengthAdjust="spacing" textLength="196.2188" x="1314.89" y="1021.9439">valor_regalias_cop: numeric</text><text fill="#000000" font-family="sans-serif" font-size="14" lengthAdjust="spacing" textLength="136.2266" x="1314.89" y="1038.2407">source_id: text [FK]</text><text fill="#000000" font-family="sans-serif" font-size="14" lengthAdjust="spacing" textLength="198.0303" x="1314.89" y="1054.5376">etl_timestamp: timestamptz</text></g><!--class fact_demanda_gas--><g class="entity" data-entity="fact_demanda_gas" data-source-line="109" data-uid="ent0015" id="entity_fact_demanda_gas"><rect fill="#F1F1F1" height="202.9688" rx="2.5" ry="2.5" style="stroke:#181818;stroke-width:0.5;" width="234.6602" x="1038.89" y="834.43"/><ellipse cx="1086.2152" cy="850.43" fill="#FFAAAA" rx="11" ry="11" style="stroke:#181818;stroke-width:1;"/><path d="M1087.0589,857.18 L1084.6058,857.18 L1084.6058,846.93 L1081.4652,846.93 L1081.4652,844.7894 L1090.1996,844.7894 L1090.1996,846.93 L1087.0589,846.93 L1087.0589,857.18 Z " fill="#000000"/><text fill="#000000" font-family="sans-serif" font-size="14" lengthAdjust="spacing" textLength="131.5098" x="1106.7152" y="855.2767">fact_demanda_gas</text><line style="stroke:#181818;stroke-width:0.5;" x1="1039.89" x2="1272.5502" y1="866.43" y2="866.43"/><text fill="#000000" font-family="sans-serif" font-size="14" lengthAdjust="spacing" textLength="114.625" x="1044.89" y="883.4251">id: bigserial [PK]</text><text fill="#000000" font-family="sans-serif" font-size="14" lengthAdjust="spacing" textLength="128.8848" x="1044.89" y="899.722">tiempo_id: int [FK]</text><text fill="#000000" font-family="sans-serif" font-size="14" lengthAdjust="spacing" textLength="104.9248" x="1044.89" y="916.0189">escenario: text</text><text fill="#000000" font-family="sans-serif" font-size="14" lengthAdjust="spacing" textLength="80.459" x="1044.89" y="932.3157">sector: text</text><text fill="#000000" font-family="sans-serif" font-size="14" lengthAdjust="spacing" textLength="81.6279" x="1044.89" y="948.6126">region: text</text><text fill="#000000" font-family="sans-serif" font-size="14" lengthAdjust="spacing" textLength="107.0166" x="1044.89" y="964.9095">segmento: text</text><text fill="#000000" font-family="sans-serif" font-size="14" lengthAdjust="spacing" textLength="155.9209" x="1044.89" y="981.2064">nivel_agregacion: text</text><text fill="#000000" font-family="sans-serif" font-size="14" lengthAdjust="spacing" textLength="222.6602" x="1044.89" y="997.5032">valor_demanda_gbtud: numeric</text><text fill="#000000" font-family="sans-serif" font-size="14" lengthAdjust="spacing" textLength="136.2266" x="1044.89" y="1013.8001">source_id: text [FK]</text><text fill="#000000" font-family="sans-serif" font-size="14" lengthAdjust="spacing" textLength="198.0303" x="1044.89" y="1030.097">etl_timestamp: timestamptz</text></g><!--class fact_oferta_gas--><g class="entity" data-entity="fact_oferta_gas" data-source-line="122" data-uid="ent0016" id="entity_fact_oferta_gas"><rect fill="#F1F1F1" height="170.375" rx="2.5" ry="2.5" style="stroke:#181818;stroke-width:0.5;" width="227.6807" x="1568.38" y="850.72"/><ellipse cx="1624.2775" cy="866.72" fill="#FFAAAA" rx="11" ry="11" style="stroke:#181818;stroke-width:1;"/><path d="M1625.1212,873.47 L1622.6681,873.47 L1622.6681,863.22 L1619.5275,863.22 L1619.5275,861.0794 L1628.2618,861.0794 L1628.2618,863.22 L1625.1212,863.22 L1625.1212,873.47 Z " fill="#000000"/><text fill="#000000" font-family="sans-serif" font-size="14" lengthAdjust="spacing" textLength="107.3857" x="1644.7775" y="871.5667">fact_oferta_gas</text><line style="stroke:#181818;stroke-width:0.5;" x1="1569.38" x2="1795.0607" y1="882.72" y2="882.72"/><text fill="#000000" font-family="sans-serif" font-size="14" lengthAdjust="spacing" textLength="114.625" x="1574.38" y="899.7151">id: bigserial [PK]</text><text fill="#000000" font-family="sans-serif" font-size="14" lengthAdjust="spacing" textLength="128.8848" x="1574.38" y="916.012">tiempo_id: int [FK]</text><text fill="#000000" font-family="sans-serif" font-size="14" lengthAdjust="spacing" textLength="127.1689" x="1574.38" y="932.3089">campo_id: int [FK]</text><text fill="#000000" font-family="sans-serif" font-size="14" lengthAdjust="spacing" textLength="215.6807" x="1574.38" y="948.6057">potencial_produccion: numeric</text><text fill="#000000" font-family="sans-serif" font-size="14" lengthAdjust="spacing" textLength="85.0322" x="1574.38" y="964.9026">unidad: text</text><text fill="#000000" font-family="sans-serif" font-size="14" lengthAdjust="spacing" textLength="179.0127" x="1574.38" y="981.1995">potencial_gbtud: numeric</text><text fill="#000000" font-family="sans-serif" font-size="14" lengthAdjust="spacing" textLength="136.2266" x="1574.38" y="997.4964">source_id: text [FK]</text><text fill="#000000" font-family="sans-serif" font-size="14" lengthAdjust="spacing" textLength="198.0303" x="1574.38" y="1013.7932">etl_timestamp: timestamptz</text></g><g class="entity" data-entity="GMN27" data-source-line="150" data-uid="ent0028" id="entity_GMN27"><path d="M242.93,304.56 L242.93,375.0912 A0,0 0 0 0 242.93,375.0912 L360.22,375.0912 L364.22,514.76 L368.22,375.0912 L485.5203,375.0912 A0,0 0 0 0 485.5203,375.0912 L485.5203,314.56 L475.5203,304.56 L242.93,304.56 A0,0 0 0 0 242.93,304.56" fill="#FEFFDD" style="stroke:#181818;stroke-width:0.5;"/><path d="M475.5203,304.56 L475.5203,314.56 L485.5203,314.56 L475.5203,304.56" fill="#FEFFDD" style="stroke:#181818;stroke-width:0.5;"/><text fill="#000000" font-family="sans-serif" font-size="13" lengthAdjust="spacing" textLength="221.5903" x="248.93" y="321.6269">Configuraci&#243;n maestra de fuentes</text><text fill="#000000" font-family="sans-serif" font-size="13" lengthAdjust="spacing" textLength="128.356" x="248.93" y="336.7597">para el proceso ETL</text><text fill="#000000" font-family="sans-serif" font-size="13" lengthAdjust="spacing" textLength="174.9541" x="248.93" y="351.8925">Define cron schedule, tipo,</text><text fill="#000000" font-family="sans-serif" font-size="13" lengthAdjust="spacing" textLength="124.4585" x="248.93" y="367.0253">configuraci&#243;n JSON</text></g><g class="entity" data-entity="GMN30" data-source-line="157" data-uid="ent0031" id="entity_GMN30"><path d="M6,573.23 L6,643.7612 A0,0 0 0 0 6,643.7612 L143.17,643.7612 L320.86,866.54 L151.17,643.7612 L234.4478,643.7612 A0,0 0 0 0 234.4478,643.7612 L234.4478,583.23 L224.4478,573.23 L6,573.23 A0,0 0 0 0 6,573.23" fill="#FEFFDD" style="stroke:#181818;stroke-width:0.5;"/><path d="M224.4478,573.23 L224.4478,583.23 L234.4478,583.23 L224.4478,573.23" fill="#FEFFDD" style="stroke:#181818;stroke-width:0.5;"/><text fill="#000000" font-family="sans-serif" font-size="13" lengthAdjust="spacing" textLength="207.4478" x="12" y="590.2969">Log inmutable de verificaciones</text><text fill="#000000" font-family="sans-serif" font-size="13" lengthAdjust="spacing" textLength="181.5557" x="12" y="605.4297">de fuentes (Check Updates)</text><text fill="#000000" font-family="sans-serif" font-size="13" lengthAdjust="spacing" textLength="166.5815" x="12" y="620.5625">&#205;ndices para optimizaci&#243;n</text><text fill="#000000" font-family="sans-serif" font-size="13" lengthAdjust="spacing" textLength="82.1831" x="12" y="635.6953">de consultas</text></g><g class="entity" data-entity="GMN33" data-source-line="164" data-uid="ent0034" id="entity_GMN33"><path d="M1787.47,74.05 L1787.47,129.4484 A0,0 0 0 0 1787.47,129.4484 L1899.22,129.4484 L1903.22,246.22 L1907.22,129.4484 L2018.9773,129.4484 A0,0 0 0 0 2018.9773,129.4484 L2018.9773,84.05 L2008.9773,74.05 L1787.47,74.05 A0,0 0 0 0 1787.47,74.05" fill="#FEFFDD" style="stroke:#181818;stroke-width:0.5;"/><path d="M2008.9773,74.05 L2008.9773,84.05 L2018.9773,84.05 L2008.9773,74.05" fill="#FEFFDD" style="stroke:#181818;stroke-width:0.5;"/><text fill="#000000" font-family="sans-serif" font-size="13" lengthAdjust="spacing" textLength="210.5073" x="1793.47" y="91.1169">Dimensi&#243;n temporal compartida</text><text fill="#000000" font-family="sans-serif" font-size="13" lengthAdjust="spacing" textLength="171.9644" x="1793.47" y="106.2497">Granularidad mensual con</text><text fill="#000000" font-family="sans-serif" font-size="13" lengthAdjust="spacing" textLength="203.3345" x="1793.47" y="121.3825">campos derivados autom&#225;ticos</text></g><g class="entity" data-entity="GMN36" data-source-line="170" data-uid="ent0037" id="entity_GMN36"><path d="M1267.62,580.8 L1267.62,636.1984 A0,0 0 0 0 1267.62,636.1984 L1373.23,636.1984 L1402.77,809.79 L1381.23,636.1984 L1478.8275,636.1984 A0,0 0 0 0 1478.8275,636.1984 L1478.8275,590.8 L1468.8275,580.8 L1267.62,580.8 A0,0 0 0 0 1267.62,580.8" fill="#FEFFDD" style="stroke:#181818;stroke-width:0.5;"/><path d="M1468.8275,580.8 L1468.8275,590.8 L1478.8275,590.8 L1468.8275,580.8" fill="#FEFFDD" style="stroke:#181818;stroke-width:0.5;"/><text fill="#000000" font-family="sans-serif" font-size="13" lengthAdjust="spacing" textLength="160.5132" x="1273.62" y="597.8669">Fuente: API Socrata ANH</text><text fill="#000000" font-family="sans-serif" font-size="13" lengthAdjust="spacing" textLength="150.1665" x="1273.62" y="612.9997">Liquidaci&#243;n de regal&#237;as</text><text fill="#000000" font-family="sans-serif" font-size="13" lengthAdjust="spacing" textLength="190.2075" x="1273.62" y="628.1325">por campo petrolero/gas&#237;fero</text></g><g class="entity" data-entity="GMN39" data-source-line="176" data-uid="ent0040" id="entity_GMN39"><path d="M935.58,573.23 L935.58,643.7612 A0,0 0 0 0 935.58,643.7612 L1055.68,643.7612 L1122.79,834.18 L1063.68,643.7612 L1160.8666,643.7612 A0,0 0 0 0 1160.8666,643.7612 L1160.8666,583.23 L1150.8666,573.23 L935.58,573.23 A0,0 0 0 0 935.58,573.23" fill="#FEFFDD" style="stroke:#181818;stroke-width:0.5;"/><path d="M1150.8666,573.23 L1150.8666,583.23 L1160.8666,583.23 L1150.8666,573.23" fill="#FEFFDD" style="stroke:#181818;stroke-width:0.5;"/><text fill="#000000" font-family="sans-serif" font-size="13" lengthAdjust="spacing" textLength="90.3462" x="941.58" y="590.2969">Fuente: UPME</text><text fill="#000000" font-family="sans-serif" font-size="13" lengthAdjust="spacing" textLength="204.2866" x="941.58" y="605.4297">Proyecci&#243;n de demanda de gas</text><text fill="#000000" font-family="sans-serif" font-size="13" lengthAdjust="spacing" textLength="161.2686" x="941.58" y="620.5625">con m&#250;ltiples escenarios</text><text fill="#000000" font-family="sans-serif" font-size="13" lengthAdjust="spacing" textLength="66.9106" x="941.58" y="635.6953">y sectores</text></g><g class="entity" data-entity="GMN42" data-source-line="183" data-uid="ent0043" id="entity_GMN42"><path d="M1584.9,580.8 L1584.9,636.1984 A0,0 0 0 0 1584.9,636.1984 L1678.22,636.1984 L1682.22,850.23 L1686.22,636.1984 L1779.5528,636.1984 A0,0 0 0 0 1779.5528,636.1984 L1779.5528,590.8 L1769.5528,580.8 L1584.9,580.8 A0,0 0 0 0 1584.9,580.8" fill="#FEFFDD" style="stroke:#181818;stroke-width:0.5;"/><path d="M1769.5528,580.8 L1769.5528,590.8 L1779.5528,590.8 L1769.5528,580.8" fill="#FEFFDD" style="stroke:#181818;stroke-width:0.5;"/><text fill="#000000" font-family="sans-serif" font-size="13" lengthAdjust="spacing" textLength="114.4355" x="1590.9" y="597.8669">Fuente: MinMinas</text><text fill="#000000" font-family="sans-serif" font-size="13" lengthAdjust="spacing" textLength="173.6528" x="1590.9" y="612.9997">Declaraci&#243;n de producci&#243;n</text><text fill="#000000" font-family="sans-serif" font-size="13" lengthAdjust="spacing" textLength="117.1714" x="1590.9" y="628.1325">de gas por campo</text></g><!--link etl_sources to source_check_history--><g class="link" data-entity-1="etl_sources" data-entity-2="source_check_history" data-source-line="135" data-uid="lnk17" id="link_etl_sources_source_check_history"><path codeLine="135" d="M367.3245,710.3063 C368.9245,762.6263 370.1093,800.8584 371.5693,848.5584" fill="none" id="etl_sources-source_check_history" style="stroke:#181818;stroke-width:1;"/><line style="stroke:#181818;stroke-width:1;" x1="363.2041" x2="371.2004" y1="706.4304" y2="706.1859"/><line style="stroke:#181818;stroke-width:1;" x1="363.2958" x2="371.2921" y1="709.429" y2="709.1845"/><line style="stroke:#181818;stroke-width:1;" x1="367.3245" x2="367.08" y1="710.3063" y2="702.31"/><line style="stroke:#181818;stroke-width:1;" x1="371.8753" x2="378.1172" y1="858.5537" y2="866.3664"/><line style="stroke:#181818;stroke-width:1;" x1="371.8753" x2="366.1228" y1="858.5537" y2="866.7336"/><line style="stroke:#181818;stroke-width:1;" x1="371.8753" x2="372.12" y1="858.5537" y2="866.55"/><ellipse cx="371.6917" cy="852.5566" fill="none" rx="4" ry="4" style="stroke:#181818;stroke-width:1;"/><text fill="#000000" font-family="sans-serif" font-size="13" lengthAdjust="spacing" textLength="62.4165" x="369.22" y="755.0469">CASCADE</text></g><!--link etl_sources to fact_regalias--><g class="link" data-entity-1="etl_sources" data-entity-2="fact_regalias" data-source-line="136" data-uid="lnk18" id="link_etl_sources_fact_regalias"><path codeLine="136" d="M436.2949,707.7263 C449.6049,720.4863 458.84,726.3 475.22,733.98 C499.18,745.21 686.78,740.96 713.22,741.98 C777.46,744.45 1234.14,737.43 1291.22,766.98 C1311.52,777.49 1317.4212,779.524 1333.1812,796.624" fill="none" id="etl_sources-fact_regalias" style="stroke:#181818;stroke-width:1;"/><line style="stroke:#181818;stroke-width:1;" x1="430.6393" x2="436.1756" y1="707.8456" y2="702.0707"/><line style="stroke:#181818;stroke-width:1;" x1="432.8049" x2="438.3412" y1="709.9217" y2="704.1468"/><line style="stroke:#181818;stroke-width:1;" x1="436.2949" x2="430.52" y1="707.7263" y2="702.19"/><line style="stroke:#181818;stroke-width:1;" x1="1339.9583" x2="1349.792" y1="803.9774" y2="805.7937"/><line style="stroke:#181818;stroke-width:1;" x1="1339.9583" x2="1340.968" y1="803.9774" y2="813.9263"/><line style="stroke:#181818;stroke-width:1;" x1="1339.9583" x2="1345.38" y1="803.9774" y2="809.86"/><ellipse cx="1335.8921" cy="799.5654" fill="none" rx="4" ry="4" style="stroke:#181818;stroke-width:1;"/></g><!--link etl_sources to fact_demanda_gas--><g class="link" data-entity-1="etl_sources" data-entity-2="fact_demanda_gas" data-source-line="137" data-uid="lnk19" id="link_etl_sources_fact_demanda_gas"><path codeLine="137" d="M437.2022,707.7691 C450.3222,720.3591 459.26,726.1 475.22,733.98 C563.34,777.49 823.66,733.97 916.22,766.98 C959.33,782.36 987.1399,797.2218 1024.0799,823.5918" fill="none" id="etl_sources-fact_demanda_gas" style="stroke:#181818;stroke-width:1;"/><line style="stroke:#181818;stroke-width:1;" x1="431.5466" x2="437.0857" y1="707.8857" y2="702.1134"/><line style="stroke:#181818;stroke-width:1;" x1="433.7112" x2="439.2502" y1="709.9628" y2="704.1906"/><line style="stroke:#181818;stroke-width:1;" x1="437.2022" x2="431.43" y1="707.7691" y2="702.23"/><line style="stroke:#181818;stroke-width:1;" x1="1032.2188" x2="1042.2161" y1="829.4019" y2="829.1666"/><line style="stroke:#181818;stroke-width:1;" x1="1032.2188" x2="1035.2439" y1="829.4019" y2="838.9334"/><line style="stroke:#181818;stroke-width:1;" x1="1032.2188" x2="1038.73" y1="829.4019" y2="834.05"/><ellipse cx="1027.3354" cy="825.9159" fill="none" rx="4" ry="4" style="stroke:#181818;stroke-width:1;"/></g><!--link etl_sources to fact_oferta_gas--><g class="link" data-entity-1="etl_sources" data-entity-2="fact_oferta_gas" data-source-line="138" data-uid="lnk20" id="link_etl_sources_fact_oferta_gas"><path codeLine="138" d="M435.8519,707.6794 C449.2619,720.5494 458.63,726.4 475.22,733.98 C488.72,740.15 994.4,741.53 1009.22,741.98 C1129.74,745.66 1444.12,711.6 1551.22,766.98 C1586.86,785.41 1605.7427,803.4653 1627.2827,835.3453" fill="none" id="etl_sources-fact_oferta_gas" style="stroke:#181818;stroke-width:1;"/><line style="stroke:#181818;stroke-width:1;" x1="430.1962" x2="435.7357" y1="707.7957" y2="702.0238"/><line style="stroke:#181818;stroke-width:1;" x1="432.3607" x2="437.9001" y1="709.873" y2="704.1011"/><line style="stroke:#181818;stroke-width:1;" x1="435.8519" x2="430.08" y1="707.6794" y2="702.14"/><line style="stroke:#181818;stroke-width:1;" x1="1632.8812" x2="1642.3316" y1="843.6312" y2="846.9009"/><line style="stroke:#181818;stroke-width:1;" x1="1632.8812" x2="1632.3884" y1="843.6312" y2="853.6191"/><line style="stroke:#181818;stroke-width:1;" x1="1632.8812" x2="1637.36" y1="843.6312" y2="850.26"/><ellipse cx="1629.5221" cy="838.6597" fill="none" rx="4" ry="4" style="stroke:#181818;stroke-width:1;"/></g><!--link dim_tiempo to fact_regalias--><g class="link" data-entity-1="dim_tiempo" data-entity-2="fact_regalias" data-source-line="140" data-uid="lnk21" id="link_dim_tiempo_fact_regalias"><path codeLine="140" d="M1802.9293,355.2784 C1727.0593,370.6484 1630.08,402.13 1567.22,472.16 C1486.69,561.88 1533.12,619.2 1496.22,733.98 C1488.3,758.62 1485.3566,767.7902 1476.2266,792.6902" fill="none" id="dim_tiempo-fact_regalias" style="stroke:#181818;stroke-width:1;"/><line style="stroke:#181818;stroke-width:1;" x1="1806.0554" x2="1807.6438" y1="350.5638" y2="358.4046"/><line style="stroke:#181818;stroke-width:1;" x1="1803.1152" x2="1804.7036" y1="351.1595" y2="359.0002"/><line style="stroke:#181818;stroke-width:1;" x1="1802.9293" x2="1810.77" y1="355.2784" y2="353.69"/><line style="stroke:#181818;stroke-width:1;" x1="1472.784" x2="1475.6633" y1="802.079" y2="811.6555"/><line style="stroke:#181818;stroke-width:1;" x1="1472.784" x2="1464.3967" y1="802.079" y2="807.5245"/><line style="stroke:#181818;stroke-width:1;" x1="1472.784" x2="1470.03" y1="802.079" y2="809.59"/><ellipse cx="1474.8496" cy="796.4457" fill="none" rx="4" ry="4" style="stroke:#181818;stroke-width:1;"/></g><!--link dim_tiempo to fact_demanda_gas--><g class="link" data-entity-1="dim_tiempo" data-entity-2="fact_demanda_gas" data-source-line="141" data-uid="lnk22" id="link_dim_tiempo_fact_demanda_gas"><path codeLine="141" d="M1802.925,347.6725 C1642.045,360.4325 1327.98,394.56 1250.22,472.16 C1224.77,497.57 1192.721,687.8208 1173.391,816.1508" fill="none" id="dim_tiempo-fact_demanda_gas" style="stroke:#181818;stroke-width:1;"/><line style="stroke:#181818;stroke-width:1;" x1="1806.5963" x2="1807.2288" y1="343.3688" y2="351.3437"/><line style="stroke:#181818;stroke-width:1;" x1="1803.6057" x2="1804.2382" y1="343.606" y2="351.5809"/><line style="stroke:#181818;stroke-width:1;" x1="1802.925" x2="1810.9" y1="347.6725" y2="347.04"/><line style="stroke:#181818;stroke-width:1;" x1="1171.9016" x2="1176.6431" y1="826.0392" y2="834.8437"/><line style="stroke:#181818;stroke-width:1;" x1="1171.9016" x2="1164.7769" y1="826.0392" y2="833.0563"/><line style="stroke:#181818;stroke-width:1;" x1="1171.9016" x2="1170.71" y1="826.0392" y2="833.95"/><ellipse cx="1172.7953" cy="820.1062" fill="none" rx="4" ry="4" style="stroke:#181818;stroke-width:1;"/></g><!--link dim_tiempo to fact_oferta_gas--><g class="link" data-entity-1="dim_tiempo" data-entity-2="fact_oferta_gas" data-source-line="142" data-uid="lnk23" id="link_dim_tiempo_fact_oferta_gas"><path codeLine="142" d="M1876.3383,441.1471 C1845.4783,556.2471 1798.7,730.41 1797.22,733.98 C1780.81,773.73 1767.2818,799.9197 1746.3218,834.8997" fill="none" id="dim_tiempo-fact_oferta_gas" style="stroke:#181818;stroke-width:1;"/><line style="stroke:#181818;stroke-width:1;" x1="1873.5106" x2="1881.2377" y1="436.2477" y2="438.3194"/><line style="stroke:#181818;stroke-width:1;" x1="1872.7337" x2="1880.4608" y1="439.1453" y2="441.2171"/><line style="stroke:#181818;stroke-width:1;" x1="1876.3383" x2="1878.41" y1="441.1471" y2="433.42"/><line style="stroke:#181818;stroke-width:1;" x1="1741.1819" x2="1742.2168" y1="843.4776" y2="853.4239"/><line style="stroke:#181818;stroke-width:1;" x1="1741.1819" x2="1731.9232" y1="843.4776" y2="847.2561"/><line style="stroke:#181818;stroke-width:1;" x1="1741.1819" x2="1737.07" y1="843.4776" y2="850.34"/><ellipse cx="1744.2659" cy="838.3309" fill="none" rx="4" ry="4" style="stroke:#181818;stroke-width:1;"/></g><!--link dim_territorios to dim_campos--><g class="link" data-entity-1="dim_territorios" data-entity-2="dim_campos" data-source-line="144" data-uid="lnk24" id="link_dim_territorios_dim_campos"><path codeLine="144" d="M2083.0065,424.4846 C2069.9565,452.3446 2066.0205,460.7421 2052.1205,490.3921" fill="none" id="dim_territorios-dim_campos" style="stroke:#181818;stroke-width:1;"/><line style="stroke:#181818;stroke-width:1;" x1="2081.081" x2="2088.3256" y1="419.1656" y2="422.559"/><line style="stroke:#181818;stroke-width:1;" x1="2079.8084" x2="2087.053" y1="421.8823" y2="425.2758"/><line style="stroke:#181818;stroke-width:1;" x1="2083.0065" x2="2086.4" y1="424.4846" y2="417.24"/><line style="stroke:#181818;stroke-width:1;" x1="2047.8758" x2="2049.9126" y1="499.4465" y2="509.2368"/><line style="stroke:#181818;stroke-width:1;" x1="2047.8758" x2="2039.0474" y1="499.4465" y2="504.1432"/><line style="stroke:#181818;stroke-width:1;" x1="2047.8758" x2="2044.48" y1="499.4465" y2="506.69"/><ellipse cx="2050.4226" cy="494.0138" fill="none" rx="4" ry="4" style="stroke:#181818;stroke-width:1;"/></g><!--link dim_campos to fact_regalias--><g class="link" data-entity-1="dim_campos" data-entity-2="fact_regalias" data-source-line="145" data-uid="lnk25" id="link_dim_campos_fact_regalias"><path codeLine="145" d="M1878.307,694.844 C1850.697,711.564 1827.24,723.19 1797.22,733.98 C1693.41,771.29 1646.81,711.91 1551.22,766.98 C1532.06,778.02 1526.9129,779.8694 1511.6229,796.4994" fill="none" id="dim_campos-fact_regalias" style="stroke:#181818;stroke-width:1;"/><line style="stroke:#181818;stroke-width:1;" x1="1879.6565" x2="1883.8005" y1="689.3505" y2="696.1935"/><line style="stroke:#181818;stroke-width:1;" x1="1877.0903" x2="1881.2343" y1="690.9045" y2="697.7475"/><line style="stroke:#181818;stroke-width:1;" x1="1878.307" x2="1885.15" y1="694.844" y2="690.7"/><line style="stroke:#181818;stroke-width:1;" x1="1504.8546" x2="1503.8569" y1="803.8609" y2="813.811"/><line style="stroke:#181818;stroke-width:1;" x1="1504.8546" x2="1495.0231" y1="803.8609" y2="805.689"/><line style="stroke:#181818;stroke-width:1;" x1="1504.8546" x2="1499.44" y1="803.8609" y2="809.75"/><ellipse cx="1508.9156" cy="799.444" fill="none" rx="4" ry="4" style="stroke:#181818;stroke-width:1;"/></g><!--link dim_campos to fact_oferta_gas--><g class="link" data-entity-1="dim_campos" data-entity-2="fact_oferta_gas" data-source-line="146" data-uid="lnk26" id="link_dim_campos_fact_oferta_gas"><path codeLine="146" d="M1898.7905,716.3182 C1883.5105,732.6282 1873.23,743.42 1858.22,758.98 C1829.13,789.14 1809.5722,809.0064 1780.6522,837.8164" fill="none" id="dim_campos-fact_oferta_gas" style="stroke:#181818;stroke-width:1;"/><line style="stroke:#181818;stroke-width:1;" x1="1898.6062" x2="1904.4443" y1="710.6643" y2="716.1338"/><line style="stroke:#181818;stroke-width:1;" x1="1896.5551" x2="1902.3933" y1="712.8537" y2="718.3232"/><line style="stroke:#181818;stroke-width:1;" x1="1898.7905" x2="1904.26" y1="716.3182" y2="710.48"/><line style="stroke:#181818;stroke-width:1;" x1="1773.5676" x2="1772.1345" y1="844.8739" y2="854.7707"/><line style="stroke:#181818;stroke-width:1;" x1="1773.5676" x2="1763.6655" y1="844.8739" y2="846.2693"/><line style="stroke:#181818;stroke-width:1;" x1="1773.5676" x2="1767.9" y1="844.8739" y2="850.52"/><ellipse cx="1777.8183" cy="840.6394" fill="none" rx="4" ry="4" style="stroke:#181818;stroke-width:1;"/></g><!--SRC=[hLTBRXmt4Dtp5BIyi0N8o5um30pqYPF8Yc3PAoDeSCYQ7jfiLeTa3oJREe8FaGDubLssSx4KoPvfzlmW91OCYLqiibwz-j5F5Coq1Hx4rC3pksCkZV2Ut_6NB_dpToTFBoydz7FCNxrYJtfLi5qJDUFVNl7YvEba4bL7YXBjJDURbvv5tQYTTDbSA-0DX3agdpzy00SOxblmZBL2VX8ryAEpT5ddXDJBlos_U7TrnBymlZ82mLGUEoV17oSvvrgTyW1tWN-u-UsF9B6YWInBdq86lI315D60i4aMpHOgNiv1TGOgwT0Mycprb7_qQATPCw0ZeDNsZdGW0gXA1Bf0D-23QDhmEUrrhTgpzy3eLw8wkrLbrIfJjV9HjBh7wMXfw_Gn3ut9kqxEzG9xn4rhuAvAck1sMI1VvQUA88HkJQ954WjRGxuaBLLQpuGsQPdkwSCmkcck8odtPJockjQsY4YlFuJgShMHK9po7T1w92JmNLF4X9WHH95u7FSFxA78hdFQirwZ1P_JAjU3qaqLD3GjbavuS5gOmOaP42-dF8OdqsurabOZZ25dUsn-Gn9SWkDWG-vXfzXYCtKn-hxm67pLEhm7ANNCpZAF3pa-TW-SqnGcZVwGZmfQuUWEi05BpZkhfMvrAJCYwD3H7PHQT8lCGhJrjbJfXMxHYBAo7WjSalmmvfwpf3YktU34o0saYX0ANTaSF4fDifxl3_dAI49qM4J6gmXEuTYbWS-KrIdRLqcT6Wu-Db27kqEPlMzXHYtJ4jvHzZgOLHGV9HGSv4cYqdL9HoQk4Cm8ERfALFLqEuP0BKMtEGNx4sDuhwa-S8GitbSvg8KXo1lzOHDThhzjCbDOjyM14YfMXUha25A_GnF6eHHksZdocEhMvRWw8EsgynlEjKZTnmRn4LPmD_RNXghQYKLqRgomG4DVTlVf79m2ua8Oedb53CsITdnWRxkCus-T8GSA9n6le15MKJ3_C_SKSh32ZShUGyoHGa1kZ0FWeTxi7vO6iAb47LtU25VcOerrE_5-31b8fHF-3nTxyh35a2hIZ9BnOFI78p_GM_Bt6NyB9j4BdZ9MszZ03BskYaSJ__hrnGlymdSDS7vApw_9xTda_E9ervbHDUzLAB9khyuG3CQ6sRlRpfxzqimUbIqhmmXSwGq3XWtB_JXsx9T6dl5h3C9pk6kDbZGU5oIr56qUiEKuumKVREEXsuZu713KPlcie-eX3Hf2WeE9pOSEO7mBi_F-oKtFrFMZzIIrl1CcnpV-UllxDGEhU4J0HZXsHPzTOKsftNIfQ2AE1INbZFp86SK6PFIuZoVv-pIt_35RVhDAno0doDXISkhF6KOyHi1yPq9CY9rmXlYn_e4MyOSeS5IQyKaRvx4Ix6SdR6Ue8r55yQZPfNtB-iWeWho8qvoBBc2p_8kcEEupEuxlPVBjb4zkVk6tIA_d8FZa-ZMxqdzsP2vpIiwa0yllT8BGvQx0MmYEHht3doWFbjyf9V2GpJ9tLsRVtxovO3VzAwytrUl5PLGbFtcp_CTGjAcgX-RisNtVbU6WgqMghgo-qPR-aU0SwFzkRl1orSpw2D8PldPtRUDV]--></g></svg>