<svg xmlns="http://www.w3.org/2000/svg" xmlns:xlink="http://www.w3.org/1999/xlink" contentStyleType="text/css" data-diagram-type="SEQUENCE" height="742px" preserveAspectRatio="none" style="width:1529px;height:742px;background:#FFFFFF;" version="1.1" viewBox="0 0 1529 742" width="1529px" zoomAndPan="magnify"><title>Pipeline de despliegue CI/CD</title><defs/><g><text fill="#000000" font-family="sans-serif" font-size="14" font-weight="bold" lengthAdjust="spacing" textLength="226.7139" x="647.6243" y="27.9951">Pipeline de despliegue CI/CD</text><g><title>Developer</title><rect fill="#000000" fill-opacity="0.00000" height="543.3906" width="8" x="40.0015" y="118.5938"/><line style="stroke:#181818;stroke-width:0.5;stroke-dasharray:5,5;" x1="44" x2="44" y1="118.5938" y2="661.9844"/></g><g><title>GitHub Repo .Monorepo.</title><rect fill="#000000" fill-opacity="0.00000" height="543.3906" width="8" x="277.8286" y="118.5938"/><line style="stroke:#181818;stroke-width:0.5;stroke-dasharray:5,5;" x1="281.8105" x2="281.8105" y1="118.5938" y2="661.9844"/></g><g><title>GitHub Actions CI.CD</title><rect fill="#000000" fill-opacity="0.00000" height="543.3906" width="8" x="462.8354" y="118.5938"/><line style="stroke:#181818;stroke-width:0.5;stroke-dasharray:5,5;" x1="465.8467" x2="465.8467" y1="118.5938" y2="661.9844"/></g><g><title>Docker Hub</title><rect fill="#000000" fill-opacity="0.00000" height="543.3906" width="8" x="658.188" y="118.5938"/><line style="stroke:#181818;stroke-width:0.5;stroke-dasharray:5,5;" x1="662.0596" x2="662.0596" y1="118.5938" y2="661.9844"/></g><g><title>Coolify .VM.</title><rect fill="#000000" fill-opacity="0.00000" height="543.3906" width="8" x="847.3604" y="118.5938"/><line style="stroke:#181818;stroke-width:0.5;stroke-dasharray:5,5;" x1="850.8955" x2="850.8955" y1="118.5938" y2="661.9844"/></g><g><title>Supabase Stack .Coolify.</title><rect fill="#000000" fill-opacity="0.00000" height="543.3906" width="8" x="1068.5757" y="118.5938"/><line style="stroke:#181818;stroke-width:0.5;stroke-dasharray:5,5;" x1="1072.0347" x2="1072.0347" y1="118.5938" y2="661.9844"/></g><g><title>Frontend App .Coolify.</title><rect fill="#000000" fill-opacity="0.00000" height="543.3906" width="8" x="1259.2085" y="118.5938"/><line style="stroke:#181818;stroke-width:0.5;stroke-dasharray:5,5;" x1="1263.1167" x2="1263.1167" y1="118.5938" y2="661.9844"/></g><g><title>ETL Service .Coolify.</title><rect fill="#000000" fill-opacity="0.00000" height="543.3906" width="8" x="1434.6313" y="118.5938"/><line style="stroke:#181818;stroke-width:0.5;stroke-dasharray:5,5;" x1="1438.3003" x2="1438.3003" y1="118.5938" y2="661.9844"/></g><g class="participant participant-head" data-participant="Developer"><text fill="#000000" font-family="sans-serif" font-size="14" lengthAdjust="spacing" textLength="72.0029" x="5" y="115.292">Developer</text><ellipse cx="44.0015" cy="50.7969" fill="#E2E2F0" rx="8" ry="8" style="stroke:#181818;stroke-width:0.5;"/><path d="M44.0015,58.7969 L44.0015,85.7969 M31.0015,66.7969 L57.0015,66.7969 M44.0015,85.7969 L31.0015,100.7969 M44.0015,85.7969 L57.0015,100.7969" fill="none" style="stroke:#181818;stroke-width:0.5;"/></g><g class="participant participant-tail" data-participant="Developer"><text fill="#000000" font-family="sans-serif" font-size="14" lengthAdjust="spacing" textLength="72.0029" x="5" y="673.9795">Developer</text><ellipse cx="44.0015" cy="685.7813" fill="#E2E2F0" rx="8" ry="8" style="stroke:#181818;stroke-width:0.5;"/><path d="M44.0015,693.7813 L44.0015,720.7813 M31.0015,701.7813 L57.0015,701.7813 M44.0015,720.7813 L31.0015,735.7813 M44.0015,720.7813 L57.0015,735.7813" fill="none" style="stroke:#181818;stroke-width:0.5;"/></g><g class="participant participant-head" data-participant="Repo"><rect fill="#E2E2F0" height="30.2969" rx="2.5" ry="2.5" style="stroke:#181818;stroke-width:0.5;" width="188.0361" x="187.8105" y="87.2969"/><text fill="#000000" font-family="sans-serif" font-size="14" lengthAdjust="spacing" textLength="174.0361" x="194.8105" y="107.292">GitHub Repo (Monorepo)</text></g><g class="participant participant-tail" data-participant="Repo"><rect fill="#E2E2F0" height="30.2969" rx="2.5" ry="2.5" style="stroke:#181818;stroke-width:0.5;" width="188.0361" x="187.8105" y="660.9844"/><text fill="#000000" font-family="sans-serif" font-size="14" lengthAdjust="spacing" textLength="174.0361" x="194.8105" y="680.9795">GitHub Repo (Monorepo)</text></g><g class="participant participant-head" data-participant="CI"><rect fill="#E2E2F0" height="30.2969" rx="2.5" ry="2.5" style="stroke:#181818;stroke-width:0.5;" width="161.9775" x="385.8467" y="87.2969"/><text fill="#000000" font-family="sans-serif" font-size="14" lengthAdjust="spacing" textLength="147.9775" x="392.8467" y="107.292">GitHub Actions CI/CD</text></g><g class="participant participant-tail" data-participant="CI"><rect fill="#E2E2F0" height="30.2969" rx="2.5" ry="2.5" style="stroke:#181818;stroke-width:0.5;" width="161.9775" x="385.8467" y="660.9844"/><text fill="#000000" font-family="sans-serif" font-size="14" lengthAdjust="spacing" textLength="147.9775" x="392.8467" y="680.9795">GitHub Actions CI/CD</text></g><g class="participant participant-head" data-participant="Registry"><rect fill="#E2E2F0" height="30.2969" rx="2.5" ry="2.5" style="stroke:#181818;stroke-width:0.5;" width="96.2568" x="614.0596" y="87.2969"/><text fill="#000000" font-family="sans-serif" font-size="14" lengthAdjust="spacing" textLength="82.2568" x="621.0596" y="107.292">Docker Hub</text></g><g class="participant participant-tail" data-participant="Registry"><rect fill="#E2E2F0" height="30.2969" rx="2.5" ry="2.5" style="stroke:#181818;stroke-width:0.5;" width="96.2568" x="614.0596" y="660.9844"/><text fill="#000000" font-family="sans-serif" font-size="14" lengthAdjust="spacing" textLength="82.2568" x="621.0596" y="680.9795">Docker Hub</text></g><g class="participant participant-head" data-participant="Coolify"><rect fill="#E2E2F0" height="30.2969" rx="2.5" ry="2.5" style="stroke:#181818;stroke-width:0.5;" width="98.9297" x="801.8955" y="87.2969"/><text fill="#000000" font-family="sans-serif" font-size="14" lengthAdjust="spacing" textLength="84.9297" x="808.8955" y="107.292">Coolify (VM)</text></g><g class="participant participant-tail" data-participant="Coolify"><rect fill="#E2E2F0" height="30.2969" rx="2.5" ry="2.5" style="stroke:#181818;stroke-width:0.5;" width="98.9297" x="801.8955" y="660.9844"/><text fill="#000000" font-family="sans-serif" font-size="14" lengthAdjust="spacing" textLength="84.9297" x="808.8955" y="680.9795">Coolify (VM)</text></g><g class="participant participant-head" data-participant="Supabase"><rect fill="#E2E2F0" height="30.2969" rx="2.5" ry="2.5" style="stroke:#181818;stroke-width:0.5;" width="189.082" x="978.0347" y="87.2969"/><text fill="#000000" font-family="sans-serif" font-size="14" lengthAdjust="spacing" textLength="175.082" x="985.0347" y="107.292">Supabase Stack (Coolify)</text></g><g class="participant participant-tail" data-participant="Supabase"><rect fill="#E2E2F0" height="30.2969" rx="2.5" ry="2.5" style="stroke:#181818;stroke-width:0.5;" width="189.082" x="978.0347" y="660.9844"/><text fill="#000000" font-family="sans-serif" font-size="14" lengthAdjust="spacing" textLength="175.082" x="985.0347" y="680.9795">Supabase Stack (Coolify)</text></g><g class="participant participant-head" data-participant="Frontend"><rect fill="#E2E2F0" height="30.2969" rx="2.5" ry="2.5" style="stroke:#181818;stroke-width:0.5;" width="172.1836" x="1177.1167" y="87.2969"/><text fill="#000000" font-family="sans-serif" font-size="14" lengthAdjust="spacing" textLength="158.1836" x="1184.1167" y="107.292">Frontend App (Coolify)</text></g><g class="participant participant-tail" data-participant="Frontend"><rect fill="#E2E2F0" height="30.2969" rx="2.5" ry="2.5" style="stroke:#181818;stroke-width:0.5;" width="172.1836" x="1177.1167" y="660.9844"/><text fill="#000000" font-family="sans-serif" font-size="14" lengthAdjust="spacing" textLength="158.1836" x="1184.1167" y="680.9795">Frontend App (Coolify)</text></g><g class="participant participant-head" data-participant="ETL"><rect fill="#E2E2F0" height="30.2969" rx="2.5" ry="2.5" style="stroke:#181818;stroke-width:0.5;" width="158.6621" x="1359.3003" y="87.2969"/><text fill="#000000" font-family="sans-serif" font-size="14" lengthAdjust="spacing" textLength="144.6621" x="1366.3003" y="107.292">ETL Service (Coolify)</text></g><g class="participant participant-tail" data-participant="ETL"><rect fill="#E2E2F0" height="30.2969" rx="2.5" ry="2.5" style="stroke:#181818;stroke-width:0.5;" width="158.6621" x="1359.3003" y="660.9844"/><text fill="#000000" font-family="sans-serif" font-size="14" lengthAdjust="spacing" textLength="144.6621" x="1366.3003" y="680.9795">ETL Service (Coolify)</text></g><g class="message" data-participant-1="Developer" data-participant-2="Repo"><polygon fill="#181818" points="269.8286,145.7266,279.8286,149.7266,269.8286,153.7266,273.8286,149.7266" style="stroke:#181818;stroke-width:1;"/><line style="stroke:#181818;stroke-width:1;" x1="44.0015" x2="275.8286" y1="149.7266" y2="149.7266"/><text fill="#000000" font-family="sans-serif" font-size="13" lengthAdjust="spacing" textLength="213.8271" x="51.0015" y="144.6606">Push cambios (frontend/ o data/)</text></g><g class="message" data-participant-1="Repo" data-participant-2="CI"><polygon fill="#181818" points="454.8354,174.8594,464.8354,178.8594,454.8354,182.8594,458.8354,178.8594" style="stroke:#181818;stroke-width:1;"/><line style="stroke:#181818;stroke-width:1;" x1="281.8286" x2="460.8354" y1="178.8594" y2="178.8594"/><text fill="#000000" font-family="sans-serif" font-size="13" lengthAdjust="spacing" textLength="109.1099" x="288.8286" y="173.7935">Trigger workflow</text></g><rect fill="#EEEEEE" height="3" style="stroke:#EEEEEE;stroke-width:1;" width="1522.9624" x="0" y="207.4258"/><line style="stroke:#000000;stroke-width:1;" x1="0" x2="1522.9624" y1="207.4258" y2="207.4258"/><line style="stroke:#000000;stroke-width:1;" x1="0" x2="1522.9624" y1="210.4258" y2="210.4258"/><rect fill="#EEEEEE" height="23.1328" style="stroke:#000000;stroke-width:2;" width="112.0713" x="705.4456" y="196.8594"/><text fill="#000000" font-family="sans-serif" font-size="13" font-weight="bold" lengthAdjust="spacing" textLength="93.5454" x="711.4456" y="212.9263">Build &amp; Push</text><g class="message" data-participant-1="CI" data-participant-2="CI"><line style="stroke:#181818;stroke-width:1;" x1="466.8354" x2="508.8354" y1="251.125" y2="251.125"/><line style="stroke:#181818;stroke-width:1;" x1="508.8354" x2="508.8354" y1="251.125" y2="264.125"/><line style="stroke:#181818;stroke-width:1;" x1="467.8354" x2="508.8354" y1="264.125" y2="264.125"/><polygon fill="#181818" points="477.8354,260.125,467.8354,264.125,477.8354,268.125,473.8354,264.125" style="stroke:#181818;stroke-width:1;"/><text fill="#000000" font-family="sans-serif" font-size="13" lengthAdjust="spacing" textLength="181.3525" x="473.8354" y="246.0591">Detecta carpeta modificada</text></g><g class="message" data-participant-1="CI" data-participant-2="Registry"><polygon fill="#181818" points="650.188,304.3906,660.188,308.3906,650.188,312.3906,654.188,308.3906" style="stroke:#181818;stroke-width:1;"/><line style="stroke:#181818;stroke-width:1;" x1="466.8354" x2="656.188" y1="308.3906" y2="308.3906"/><text fill="#000000" font-family="sans-serif" font-size="13" lengthAdjust="spacing" textLength="134.9893" x="473.8354" y="288.1919">Build &amp; Push imagen</text><text fill="#000000" font-family="sans-serif" font-size="13" lengthAdjust="spacing" textLength="98.7695" x="473.8354" y="303.3247">(frontend o etl)</text></g><rect fill="#EEEEEE" height="3" style="stroke:#EEEEEE;stroke-width:1;" width="1522.9624" x="0" y="336.957"/><line style="stroke:#000000;stroke-width:1;" x1="0" x2="1522.9624" y1="336.957" y2="336.957"/><line style="stroke:#000000;stroke-width:1;" x1="0" x2="1522.9624" y1="339.957" y2="339.957"/><rect fill="#EEEEEE" height="23.1328" style="stroke:#000000;stroke-width:2;" width="107.1328" x="707.9148" y="326.3906"/><text fill="#000000" font-family="sans-serif" font-size="13" font-weight="bold" lengthAdjust="spacing" textLength="88.6069" x="713.9148" y="342.4575">Deployment</text><g class="message" data-participant-1="Registry" data-participant-2="Coolify"><polygon fill="#181818" points="839.3604,376.6563,849.3604,380.6563,839.3604,384.6563,843.3604,380.6563" style="stroke:#181818;stroke-width:1;"/><line style="stroke:#181818;stroke-width:1;" x1="662.188" x2="845.3604" y1="380.6563" y2="380.6563"/><text fill="#000000" font-family="sans-serif" font-size="13" lengthAdjust="spacing" textLength="165.1724" x="669.188" y="375.5903">Nueva imagen disponible</text></g><g class="message" data-participant-1="Coolify" data-participant-2="Frontend"><polygon fill="#181818" points="1251.2085,420.9219,1261.2085,424.9219,1251.2085,428.9219,1255.2085,424.9219" style="stroke:#181818;stroke-width:1;"/><line style="stroke:#181818;stroke-width:1;" x1="851.3604" x2="1257.2085" y1="424.9219" y2="424.9219"/><text fill="#000000" font-family="sans-serif" font-size="13" lengthAdjust="spacing" textLength="168.1304" x="858.3604" y="404.7231">Deploy nuevo contenedor</text><text fill="#000000" font-family="sans-serif" font-size="13" lengthAdjust="spacing" textLength="140.5244" x="858.3604" y="419.856">(autoupdate con pull)</text></g><g class="message" data-participant-1="Coolify" data-participant-2="ETL"><polygon fill="#181818" points="1426.6313,465.1875,1436.6313,469.1875,1426.6313,473.1875,1430.6313,469.1875" style="stroke:#181818;stroke-width:1;"/><line style="stroke:#181818;stroke-width:1;" x1="851.3604" x2="1432.6313" y1="469.1875" y2="469.1875"/><text fill="#000000" font-family="sans-serif" font-size="13" lengthAdjust="spacing" textLength="168.1304" x="858.3604" y="448.9888">Deploy nuevo contenedor</text><text fill="#000000" font-family="sans-serif" font-size="13" lengthAdjust="spacing" textLength="140.5244" x="858.3604" y="464.1216">(autoupdate con pull)</text></g><rect fill="#EEEEEE" height="3" style="stroke:#EEEEEE;stroke-width:1;" width="1522.9624" x="0" y="497.7539"/><line style="stroke:#000000;stroke-width:1;" x1="0" x2="1522.9624" y1="497.7539" y2="497.7539"/><line style="stroke:#000000;stroke-width:1;" x1="0" x2="1522.9624" y1="500.7539" y2="500.7539"/><rect fill="#EEEEEE" height="23.1328" style="stroke:#000000;stroke-width:2;" width="180.9243" x="671.019" y="487.1875"/><text fill="#000000" font-family="sans-serif" font-size="13" font-weight="bold" lengthAdjust="spacing" textLength="162.3984" x="677.019" y="503.2544">Servicios persistentes</text><g class="message" data-participant-1="Developer" data-participant-2="Supabase"><polygon fill="#181818" points="1060.5757,537.4531,1070.5757,541.4531,1060.5757,545.4531,1064.5757,541.4531" style="stroke:#181818;stroke-width:1;"/><line style="stroke:#181818;stroke-width:1;" x1="44.0015" x2="1066.5757" y1="541.4531" y2="541.4531"/><text fill="#000000" font-family="sans-serif" font-size="13" lengthAdjust="spacing" textLength="135.2495" x="51.0015" y="536.3872">Gesti&#243;n de datos/API</text></g><g class="message" data-participant-1="Supabase" data-participant-2="Coolify"><polygon fill="#181818" points="862.3604,581.7188,852.3604,585.7188,862.3604,589.7188,858.3604,585.7188" style="stroke:#181818;stroke-width:1;"/><line style="stroke:#181818;stroke-width:1;" x1="856.3604" x2="1071.5757" y1="585.7188" y2="585.7188"/><text fill="#000000" font-family="sans-serif" font-size="13" lengthAdjust="spacing" textLength="156.457" x="868.3604" y="565.52">Vol&#250;menes persistentes</text><text fill="#000000" font-family="sans-serif" font-size="13" lengthAdjust="spacing" textLength="197.2153" x="868.3604" y="580.6528">(no se redeployea con c&#243;digo)</text></g><g class="message" data-participant-1="Frontend" data-participant-2="Supabase"><polygon fill="#181818" points="1083.5757,610.8516,1073.5757,614.8516,1083.5757,618.8516,1079.5757,614.8516" style="stroke:#181818;stroke-width:1;"/><line style="stroke:#181818;stroke-width:1;" x1="1077.5757" x2="1262.2085" y1="614.8516" y2="614.8516"/><text fill="#000000" font-family="sans-serif" font-size="13" lengthAdjust="spacing" textLength="66.9932" x="1089.5757" y="609.7856">API y Auth</text></g><g class="message" data-participant-1="ETL" data-participant-2="Supabase"><polygon fill="#181818" points="1083.5757,639.9844,1073.5757,643.9844,1083.5757,647.9844,1079.5757,643.9844" style="stroke:#181818;stroke-width:1;"/><line style="stroke:#181818;stroke-width:1;" x1="1077.5757" x2="1437.6313" y1="643.9844" y2="643.9844"/><text fill="#000000" font-family="sans-serif" font-size="13" lengthAdjust="spacing" textLength="151.1123" x="1089.5757" y="638.9185">Lectura/escritura datos</text></g><!--SRC=[bPDDQnj138Rlyoj43iK-bBqRN73NRMf8Ygb3JhsCP-MDy7Wqp8U3VrTklVgFLVlXfHDw2Ipie7dqIdgrcoXPX2rvjEGGckw9tXAs6Q7ULFLQAMqI1rZZ6Irx3ChhaCYGrox1tJsb7taFlz0pp1xPSP3J_0vqx6F_XLSc4RiuwFTelId1DPiZ1X1uL6effd0fePhPqk42i-V7eU0OAAbTzdgl8y8kQNE4sGWD6RVBCkLxO9VGDR3o_bt2xQfC-FRq03iCPpBuZfSRfIRhuFENmQa5R7Dy0QDFU-88iyCeMm53evEkvghdXAytGZy5Qbl9V-LmF5X-LMgvXA-PR0EV1gdbKYb1RmbhJ6YIbWh1exnFtD21Z6xqIDqi5RRGePDkqVrsKqlI4IOxxokkqLk-d51cxkfD6btLSHaB-9dnh4STQ2XwThItg6w4m9F1Yr4Id2Gnc3wC3GTfGEV4sOiRsCN1PojT_2FIcVxX_6wAOLETxxAIA1F8F1ZxYOfDJL_E0kun9hg-kVu7qObZjTfkr0GKyp-plVuHZx3KbuuSWy01cxvdr7rVvlhMKCjpDPbIbfP2S85LJY-gcxYyV90bvw0hZ2PGTngw-mi0]--></g></svg>